<svg viewBox="0 0 462.66 387.226" xmlns="http://www.w3.org/2000/svg" xmlns:xlink="http://www.w3.org/1999/xlink" width="462.659668" height="387.226440" fill="none" customFrame="#000000">
	<path id="Vector" d="M372.442 229.037C365.114 217.139 353.998 201.313 345.302 198.83C340.501 195.151 333.085 192.194 325.139 189.113L321.09 187.523C321.198 184.219 320.212 181.827 318.021 180.244C304.626 170.593 291.04 156.324 277.989 140.275C278.339 139.329 278.543 138.304 278.543 137.2C278.543 133.055 275.837 129.698 272.508 129.698C271.546 129.698 270.668 129.783 269.719 129.796C265.912 124.811 262.189 119.758 258.552 114.64C259.176 113.464 259.628 112.13 259.628 110.619C259.628 106.467 256.922 103.11 253.599 103.11C253.287 103.11 252.198 103.117 250.537 103.183C246.293 96.9667 242.119 90.701 238.014 84.3868C238.275 83.5525 238.447 82.6656 238.447 81.7261C238.447 77.5741 235.747 74.2105 232.424 74.2105C232.099 74.2105 231.807 74.2367 231.495 74.2367C227.627 68.1444 223.793 62.0302 219.99 55.8944C220.181 55.152 220.366 54.3899 220.366 53.5753C220.366 49.4299 217.654 46.0728 214.337 46.0728L213.917 46.0859C198.408 21.0951 195.588 17.3241 191.29 17.3241C188.451 17.3241 185.815 17.5212 183.249 17.7905C182.282 15.997 181.295 14.2561 180.334 12.4363C177.335 6.77328 170.93 0 157.503 0C137.163 0 109.252 15.5897 92.871 26.0026C77.3431 19.203 64.139 15.6817 53.7426 15.6817C43.1297 15.6817 38.1893 19.249 36.1202 21.4104C35.9928 21.5221 35.84 21.5878 35.7191 21.7192C24.2722 34.6219 16.9061 58.7456 12.1758 82.6393C4.63794 107.387 3.81666 127.536 3.93762 136.826C3.47068 137.389 3.06899 138.006 2.74073 138.665C-1.65851 148.092 -0.760838 184.679 5.42738 192.621C21.299 213.073 37.5399 226.33 54.7358 240.369C74.1853 256.248 94.2907 272.666 117.923 301.933C138.283 327.161 180.671 341.62 234.232 341.62C305.588 341.62 381.992 315.48 381.992 276.581C381.992 233.76 377.516 229.24 372.442 229.037ZM365.433 235.646C351.636 257.726 287.583 269.63 231.189 269.63C212.363 269.63 195.747 268.29 184.383 265.846C168.645 262.463 153.817 256.866 139.913 249.941C152.971 232.308 176.603 229.569 200.681 229.569C210.033 229.569 219.685 230.003 229.916 230.476C240.363 230.949 251.167 231.435 261.85 231.435C287.634 231.435 320.097 228.794 344.385 208.632C348.733 211.338 357.373 222.461 365.433 235.646ZM289.71 175.422C293.396 179.39 296.872 183.155 299.858 186.512C303.939 191.11 312.648 194.494 321.854 198.074C326.616 199.927 331.41 201.825 335.198 203.75C313.781 219.57 286.297 221.863 261.85 221.863C251.874 221.863 241.713 221.416 231.819 220.963C231.8 210.497 230.323 199.855 227.821 193.337C242.254 184.587 263.002 176.158 289.71 175.422ZM261.939 145.07C266.795 150.541 271.704 155.961 276.665 161.33C252.574 164.135 233.685 172.538 220.213 181.111C215.492 174.243 210.734 167.402 205.94 160.588C218.692 153.309 236.932 146.588 261.939 145.07ZM249.887 131.169C226.86 134.119 209.766 141.253 197.536 148.815C193.691 143.441 189.915 138.238 186.235 133.225C204.838 124.008 226.185 120.408 239.777 119.015C243.215 123.24 246.57 127.254 249.887 131.169ZM177.532 121.531C172.933 115.415 168.275 109.347 163.558 103.327C176.966 97.3487 195.034 91.7185 217.476 89.8987C221.219 95.0695 225.042 100.179 228.942 105.226C214 107.453 194.645 112.065 177.532 121.531ZM230.024 89.3075C232.832 93.6434 235.728 98.0451 238.721 102.499C235.347 98.1614 232.029 93.7769 228.77 89.3469C229.19 89.3337 229.597 89.3075 230.024 89.3075ZM212.211 61.1501C214.859 65.4137 217.648 69.8811 220.602 74.5784C219.825 74.6178 219.086 74.7097 218.316 74.7623C215.22 70.2933 212.178 65.784 209.193 61.2355C210.212 61.2092 211.186 61.1632 212.211 61.1501ZM154.117 91.5674C149.711 86.1607 145.227 80.8234 140.664 75.5572C154.416 69.4146 173.528 63.5808 198.325 61.7347C201.419 66.5569 204.52 71.2541 207.614 75.8003C185.045 78.6909 167.181 85.1357 154.117 91.5674ZM189.998 26.9289C192.252 29.3202 197.351 37.2695 203.062 46.4012C201.992 46.4538 200.916 46.4998 199.866 46.5655C195.901 40.131 192.055 33.6193 188.33 27.034C188.897 27.0143 189.412 26.942 189.998 26.9289ZM157.503 9.57851C164.698 9.57851 169.492 12.0158 172.153 17.0285C177.62 27.344 183.376 37.4939 189.412 47.4655C163.59 50.3627 144.121 57.4185 130.44 64.3035C117.044 50.0145 105.725 40.1535 96.5763 34.9504C111.919 25.096 138.996 9.57851 157.503 9.57851ZM43.1106 27.7238C44.091 27.0012 47.1151 25.2536 53.7362 25.2536C58.8676 25.2536 67.0804 26.4033 79.1194 30.7524C62.9612 32.6313 54.0227 45.718 46.8159 56.5185C42.1811 63.4429 37.8264 69.9796 33.7518 70.203C31.2562 66.9182 35.7127 46.8348 43.1106 27.7238ZM24.2976 70.8271C24.6287 72.6666 25.1889 74.2696 26.0166 75.5441C27.7228 78.1391 30.3712 79.5516 33.4781 79.5516C42.7349 79.5516 48.4457 70.9979 54.4938 61.9318C61.7261 51.1182 69.194 39.9367 83.022 39.9367C90.7509 39.9367 104.121 50.1591 121.826 68.9679C117.401 71.6089 113.995 74.02 111.423 75.9843C110.71 75.737 109.965 75.6041 109.214 75.5901C104.356 75.5901 100.422 80.491 100.422 86.5351C100.422 92.5791 104.356 97.4801 109.214 97.4801C113.467 97.4801 117.013 93.7157 117.828 88.7096C122.246 85.4048 126.903 82.453 131.757 79.8801C136.431 85.2185 141.014 90.6415 145.503 96.1464C141.419 98.4896 137.466 101.067 133.661 103.866C132.907 103.586 132.113 103.438 131.312 103.426C126.461 103.426 122.526 108.32 122.526 114.371C122.526 120.421 126.461 125.316 131.312 125.316C135.495 125.316 138.977 121.663 139.868 116.782C144.597 113.349 149.559 110.271 154.715 107.571C159.445 113.543 164.347 119.856 169.396 126.544C164.191 130.09 159.401 134.245 155.122 138.928C154.887 138.902 154.664 138.842 154.422 138.842C149.552 138.842 145.624 143.743 145.624 149.787C145.624 155.825 149.552 160.732 154.422 160.732C159.178 160.732 163.042 155.989 163.17 150.09C167.514 145.352 172.463 141.247 177.883 137.89C181.734 143.106 185.675 148.5 189.705 154.084C185.051 157.542 180.741 161.468 176.838 165.804C176.641 165.791 176.45 165.732 176.253 165.732C171.408 165.732 167.467 170.639 167.467 176.683C167.467 182.721 171.408 187.628 176.253 187.628C181.053 187.628 184.924 182.833 185.019 176.887C188.927 172.67 193.262 168.897 197.95 165.633C202.835 172.542 207.676 179.484 212.472 186.459C208.111 189.674 203.971 193.197 200.082 197.003C199.675 196.931 199.274 196.852 198.86 196.852C193.996 196.852 190.068 201.76 190.068 207.797C190.068 213.841 193.996 218.742 198.86 218.742C203.406 218.742 207.117 214.4 207.55 208.855C211.436 205.106 215.583 201.656 219.959 198.534C221.811 203.947 222.601 212.409 222.562 220.569C215.277 220.221 207.986 220.026 200.694 219.984C173.343 219.984 146.432 223.38 131.445 245.533C91.6168 223.545 60.3701 190.966 39.9019 167.079C40.3602 145.767 35.2543 132.45 30.142 119.712C25.8765 109.056 21.8529 98.9648 21.42 84.1569C22.2794 79.683 23.2281 75.2025 24.2976 70.8271ZM21.5155 123.358C25.4181 133.087 29.0979 142.574 30.2885 155.628C28.6014 153.572 27.0225 151.633 25.5709 149.847C19.1344 141.95 15.7347 137.85 13.2518 135.827C13.2827 126.358 14.1307 116.911 15.7856 107.597C17.4537 113.241 19.5037 118.345 21.5155 123.358ZM234.232 332.042C183.447 332.042 143.675 318.837 125.092 295.824C100.842 265.781 79.425 248.299 60.5293 232.867C43.7599 219.182 27.9265 206.247 12.7043 186.656C9.59742 182.412 8.33049 156.239 10.164 146.069C12.3668 148.572 15.4291 152.323 18.4214 156.002C43.2188 186.459 101.294 257.766 182.486 275.221C194.448 277.79 211.752 279.202 231.189 279.202C274.812 279.202 348.854 271.549 371.092 244.048C371.888 249.488 372.671 259.244 372.671 276.568C372.671 305.606 306.683 332.042 234.232 332.042Z" fill="rgb(0,0,0)" fill-rule="nonzero" transform="matrix(-0.989076,-0.147408,-0.248348,0.968671,462.66,56.3087)" />
</svg>
