<svg viewBox="0 0 596.764 489.681" xmlns="http://www.w3.org/2000/svg" xmlns:xlink="http://www.w3.org/1999/xlink" width="596.763916" height="489.681091" fill="none" customFrame="#000000">
	<path id="Vector" d="M584.828 287.042C573.322 272.132 555.867 252.297 542.211 249.185C534.674 244.574 523.027 240.869 510.551 237.008L504.193 235.015C504.363 230.874 502.813 227.877 499.374 225.893C478.341 213.798 457.007 195.915 436.513 175.8C437.063 174.615 437.383 173.33 437.383 171.947C437.383 166.752 433.134 162.545 427.906 162.545C426.396 162.545 425.017 162.652 423.527 162.668C417.549 156.421 411.703 150.088 405.992 143.674C406.972 142.2 407.682 140.528 407.682 138.635C407.682 133.431 403.433 129.224 398.215 129.224C397.725 129.224 396.015 129.232 393.406 129.314C386.743 121.524 380.188 113.672 373.742 105.759C374.152 104.713 374.422 103.601 374.422 102.424C374.422 97.2205 370.183 93.005 364.965 93.005C364.455 93.005 363.995 93.0379 363.505 93.0379C357.433 85.4026 351.411 77.7399 345.441 70.0501C345.741 69.1197 346.03 68.1647 346.03 67.1437C346.03 61.9484 341.772 57.7411 336.563 57.7411L335.904 57.7576C311.551 26.4376 307.122 21.7116 300.374 21.7116C295.916 21.7116 291.777 21.9586 287.748 22.2962C286.229 20.0484 284.679 17.8666 283.169 15.5859C278.461 8.48868 268.404 0 247.32 0C215.38 0 171.553 19.538 145.831 32.588C121.448 24.0664 100.715 19.6532 84.3895 19.6532C67.7245 19.6532 59.9668 24.124 56.7178 26.8328C56.5179 26.9728 56.278 27.0551 56.088 27.2198C38.1134 43.3902 26.5469 73.6234 19.1192 103.568C7.28273 134.584 5.99312 159.836 6.18307 171.478C5.44984 172.184 4.8191 172.957 4.30363 173.783C-2.60428 185.598 -1.19471 231.45 8.52236 241.405C33.4448 267.035 58.9471 283.65 85.949 301.245C116.49 321.145 148.06 341.721 185.169 378.401C217.139 410.017 283.699 428.139 367.804 428.139C479.85 428.139 599.824 395.378 599.824 346.628C599.824 292.962 592.796 287.298 584.828 287.042ZM573.822 295.325C552.158 322.998 451.579 337.917 363.025 337.917C333.464 337.917 307.372 336.237 289.528 333.174C264.815 328.934 241.532 321.919 219.699 313.241C240.202 291.143 277.311 287.709 315.12 287.709C329.805 287.709 344.961 288.253 361.026 288.846C377.431 289.438 394.396 290.048 411.171 290.048C451.659 290.048 502.633 286.738 540.772 261.469C547.6 264.862 561.166 278.801 573.822 295.325ZM454.918 219.849C460.706 224.822 466.164 229.54 470.853 233.747C477.261 239.511 490.937 243.751 505.392 248.238C512.87 250.56 520.398 252.94 526.346 255.352C492.716 275.178 449.559 278.052 411.171 278.052C395.506 278.052 379.55 277.492 364.015 276.924C363.985 263.808 361.666 250.47 357.737 242.302C380.4 231.335 412.98 220.772 454.918 219.849ZM411.311 181.811C418.936 188.666 426.644 195.459 434.434 202.189C396.605 205.704 366.944 216.235 345.791 226.98C338.377 218.372 330.906 209.798 323.377 201.258C343.401 192.136 372.043 183.713 411.311 181.811ZM392.387 164.389C356.227 168.086 329.386 177.027 310.181 186.504C304.143 179.769 298.215 173.248 292.437 166.966C321.648 155.414 355.168 150.903 376.511 149.157C381.91 154.451 387.178 159.482 392.387 164.389ZM278.771 152.31C271.549 144.646 264.234 137.04 256.827 129.496C277.881 122.003 306.253 114.947 341.492 112.666C347.371 119.147 353.373 125.55 359.496 131.875C336.034 134.666 305.643 140.446 278.771 152.31ZM361.196 111.925C365.605 117.359 370.153 122.876 374.852 128.458C369.554 123.022 364.345 117.527 359.227 111.975C359.886 111.958 360.526 111.925 361.196 111.925ZM333.224 76.6369C337.383 81.9804 341.762 87.5791 346.4 93.466C345.181 93.5154 344.021 93.6307 342.811 93.6966C337.949 88.0958 333.174 82.4445 328.486 76.7439C330.085 76.711 331.615 76.6534 333.224 76.6369ZM242.002 114.758C235.084 107.982 228.042 101.293 220.878 94.6928C242.472 86.9946 272.483 79.6833 311.421 77.3697C316.28 83.413 321.148 89.2999 326.007 94.9975C290.567 98.6202 262.516 106.697 242.002 114.758ZM298.345 33.7489C301.884 36.7458 309.891 46.7083 318.859 58.1528C317.179 58.2187 315.49 58.2763 313.84 58.3586C307.614 50.2946 301.575 42.1337 295.726 33.8806C296.615 33.8559 297.425 33.7653 298.345 33.7489ZM247.32 12.0044C258.617 12.0044 266.145 15.059 270.323 21.3411C278.908 34.2691 287.946 46.9896 297.425 59.4866C256.877 63.1176 226.307 71.9603 204.823 80.5889C183.789 62.6812 166.015 50.3228 151.649 43.8019C175.742 31.4517 218.259 12.0044 247.32 12.0044ZM67.6945 34.7451C69.234 33.8395 73.9826 31.6494 84.3795 31.6494C92.437 31.6494 105.333 33.0902 124.237 38.5407C98.8651 40.8955 84.8293 57.2965 73.5127 70.8323C66.2349 79.5104 59.397 87.7026 52.9989 87.9826C49.0801 83.8659 56.078 58.6962 67.6945 34.7451ZM38.1534 88.7647C38.6733 91.0701 39.553 93.0791 40.8526 94.6764C43.5318 97.9286 47.6905 99.6987 52.5691 99.6987C67.1047 99.6987 76.072 88.9788 85.5691 77.6167C96.9257 64.0644 108.652 50.0511 130.366 50.0511C142.502 50.0511 163.496 62.8623 191.297 86.4347C184.349 89.7445 179.001 92.7662 174.962 95.228C173.843 94.9181 172.673 94.7515 171.493 94.734C163.865 94.734 157.687 100.876 157.687 108.451C157.687 116.026 163.865 122.168 171.493 122.168C178.171 122.168 183.74 117.45 185.019 111.176C191.958 107.034 199.27 103.335 206.893 100.11C214.232 106.801 221.427 113.597 228.476 120.496C222.064 123.433 215.856 126.663 209.882 130.171C208.697 129.821 207.451 129.634 206.193 129.619C198.575 129.619 192.397 135.753 192.397 143.336C192.397 150.919 198.575 157.053 206.193 157.053C212.761 157.053 218.229 152.475 219.629 146.358C227.054 142.055 234.845 138.198 242.942 134.814C250.369 142.299 258.067 150.211 265.995 158.593C257.821 163.036 250.3 168.244 243.581 174.113C243.212 174.08 242.862 174.006 242.482 174.006C234.834 174.006 228.666 180.148 228.666 187.722C228.666 195.289 234.834 201.439 242.482 201.439C249.95 201.439 256.018 195.495 256.218 188.101C263.039 182.163 270.811 177.019 279.321 172.812C285.369 179.349 291.557 186.109 297.885 193.107C290.577 197.441 283.809 202.361 277.681 207.796C277.371 207.779 277.071 207.705 276.761 207.705C269.154 207.705 262.966 213.855 262.966 221.43C262.966 228.997 269.154 235.147 276.761 235.147C284.299 235.147 290.377 229.137 290.527 221.685C296.664 216.4 303.471 211.672 310.831 207.582C318.503 216.24 326.104 224.94 333.634 233.682C326.786 237.711 320.286 242.126 314.18 246.896C313.54 246.806 312.911 246.707 312.261 246.707C304.623 246.707 298.455 252.857 298.455 260.424C298.455 267.999 304.623 274.141 312.261 274.141C319.399 274.141 325.227 268.698 325.907 261.749C332.008 257.051 338.52 252.727 345.391 248.815C348.3 255.599 349.539 266.204 349.479 276.43C338.04 275.994 326.591 275.75 315.14 275.697C272.193 275.697 229.936 279.954 206.403 307.717C143.862 280.159 94.7963 239.33 62.656 209.393C63.3758 182.684 55.3582 165.994 47.3307 150.03C40.6327 136.675 34.3146 124.029 33.6348 105.47C34.9844 99.8634 36.4739 94.2482 38.1534 88.7647ZM33.7847 154.599C39.9129 166.793 45.6911 178.682 47.5606 195.042C44.9114 192.465 42.4321 190.036 40.1528 187.797C30.0459 177.9 24.7075 172.762 20.8087 170.226C20.8573 158.359 22.1888 146.52 24.7875 134.847C27.4067 141.92 30.6257 148.317 33.7847 154.599ZM367.804 416.135C288.058 416.135 225.607 399.585 196.426 370.744C158.347 333.092 124.717 311.183 95.0462 291.843C68.7142 274.692 43.8517 258.481 19.9489 233.929C15.0704 228.61 13.081 195.808 15.9601 183.062C19.4191 186.199 24.2276 190.901 28.9262 195.511C67.8645 233.682 159.057 323.047 286.548 344.924C305.333 348.143 332.505 349.913 363.025 349.913C431.525 349.913 547.79 340.321 582.709 305.856C583.959 312.673 585.188 324.9 585.188 346.611C585.188 383.003 481.57 416.135 367.804 416.135Z" fill="rgb(0,0,0)" fill-rule="nonzero" transform="matrix(0.994723,0.1026,0.000246293,1,0,0)" />
</svg>
